<?xml version="1.0" encoding="UTF-8" standalone="no"?>
<!DOCTYPE svg PUBLIC "-//W3C//DTD SVG 1.1//EN"
 "http://www.w3.org/Graphics/SVG/1.1/DTD/svg11.dtd">
<!-- Generated by graphviz version 2.40.1 (20161225.0304)
 -->
<!-- Title: dependencies Pages: 1 -->
<svg width="2671pt" height="284pt"
 viewBox="0.00 0.00 2671.00 284.00" xmlns="http://www.w3.org/2000/svg" xmlns:xlink="http://www.w3.org/1999/xlink">
<g id="graph0" class="graph" transform="scale(1 1) rotate(0) translate(4 280)">
<title>dependencies</title>
<polygon fill="#ffffff" stroke="transparent" points="-4,4 -4,-280 2667,-280 2667,4 -4,4"/>
<text text-anchor="start" x="1310.5091" y="-42.4" font-family="sans-serif" font-weight="bold" font-size="14.00" fill="#000000">Legend</text>
<polygon fill="#ffffb3" stroke="transparent" points="1097.5,-10 1097.5,-30 1117.5,-30 1117.5,-10 1097.5,-10"/>
<text text-anchor="start" x="1121.129" y="-15.4" font-family="sans-serif" font-size="14.00" fill="#000000"> &#160;Declarations</text>
<polygon fill="#8dd3c7" stroke="transparent" points="1210.5,-10 1210.5,-30 1230.5,-30 1230.5,-10 1210.5,-10"/>
<text text-anchor="start" x="1234.2251" y="-15.4" font-family="sans-serif" font-size="14.00" fill="#000000"> &#160;Module</text>
<polygon fill="#80b1d3" stroke="transparent" points="1296.5,-10 1296.5,-30 1316.5,-30 1316.5,-10 1296.5,-10"/>
<text text-anchor="start" x="1320.2812" y="-15.4" font-family="sans-serif" font-size="14.00" fill="#000000"> &#160;Bootstrap</text>
<polygon fill="#fdb462" stroke="transparent" points="1393.5,-10 1393.5,-30 1413.5,-30 1413.5,-10 1393.5,-10"/>
<text text-anchor="start" x="1417.1732" y="-15.4" font-family="sans-serif" font-size="14.00" fill="#000000"> &#160;Providers</text>
<polygon fill="#fb8072" stroke="transparent" points="1489.5,-10 1489.5,-30 1509.5,-30 1509.5,-10 1489.5,-10"/>
<text text-anchor="start" x="1513.2258" y="-15.4" font-family="sans-serif" font-size="14.00" fill="#000000"> &#160;Exports</text>
<g id="clust1" class="cluster">
<title>cluster_AppModule</title>
<polygon fill="none" stroke="#000000" stroke-dasharray="1,5" points="8,-70 8,-268 2655,-268 2655,-70 8,-70"/>
</g>
<g id="clust2" class="cluster">
<title>cluster_AppModule_declarations</title>
<polygon fill="none" stroke="#000000" points="478,-78 478,-130 2647,-130 2647,-78 478,-78"/>
</g>
<g id="clust20" class="cluster">
<title>cluster_AppModule_bootstrap</title>
<polygon fill="none" stroke="#000000" points="1315,-208 1315,-260 1439,-260 1439,-208 1315,-208"/>
</g>
<g id="clust21" class="cluster">
<title>cluster_AppModule_providers</title>
<polygon fill="none" stroke="#000000" points="16,-78 16,-130 470,-130 470,-78 16,-78"/>
</g>
<!-- AppComponent -->
<g id="node1" class="node">
<title>AppComponent</title>
<polygon fill="#ffffb3" stroke="#000000" points="2638.9399,-122 2533.0601,-122 2533.0601,-86 2638.9399,-86 2638.9399,-122"/>
<text text-anchor="middle" x="2586" y="-99.8" font-family="Times,serif" font-size="14.00" fill="#000000">AppComponent</text>
</g>
<!-- AppModule -->
<g id="node16" class="node">
<title>AppModule</title>
<polygon fill="#8dd3c7" stroke="#000000" points="1418.6571,-187 1415.6571,-191 1394.6571,-191 1391.6571,-187 1335.3429,-187 1335.3429,-151 1418.6571,-151 1418.6571,-187"/>
<text text-anchor="middle" x="1377" y="-164.8" font-family="Times,serif" font-size="14.00" fill="#000000">AppModule</text>
</g>
<!-- AppComponent&#45;&gt;AppModule -->
<g id="edge1" class="edge">
<title>AppComponent&#45;&gt;AppModule</title>
<path fill="none" stroke="#000000" d="M2586,-122.3228C2586,-145.6602 2586,-183 2586,-183 2586,-183 1428.9676,-183 1428.9676,-183"/>
<polygon fill="#000000" stroke="#000000" points="1428.9676,-179.5001 1418.9676,-183 1428.9676,-186.5001 1428.9676,-179.5001"/>
</g>
<!-- HeaderComponent -->
<g id="node2" class="node">
<title>HeaderComponent</title>
<polygon fill="#ffffb3" stroke="#000000" points="2514.7437,-122 2393.2563,-122 2393.2563,-86 2514.7437,-86 2514.7437,-122"/>
<text text-anchor="middle" x="2454" y="-99.8" font-family="Times,serif" font-size="14.00" fill="#000000">HeaderComponent</text>
</g>
<!-- HeaderComponent&#45;&gt;AppModule -->
<g id="edge2" class="edge">
<title>HeaderComponent&#45;&gt;AppModule</title>
<path fill="none" stroke="#000000" d="M2454,-122.1554C2454,-144.3519 2454,-179 2454,-179 2454,-179 1428.8891,-179 1428.8891,-179"/>
<polygon fill="#000000" stroke="#000000" points="1428.8892,-175.5001 1418.8891,-179 1428.8891,-182.5001 1428.8892,-175.5001"/>
</g>
<!-- ShopsComponent -->
<g id="node3" class="node">
<title>ShopsComponent</title>
<polygon fill="#ffffb3" stroke="#000000" points="2374.5604,-122 2259.4396,-122 2259.4396,-86 2374.5604,-86 2374.5604,-122"/>
<text text-anchor="middle" x="2317" y="-99.8" font-family="Times,serif" font-size="14.00" fill="#000000">ShopsComponent</text>
</g>
<!-- ShopsComponent&#45;&gt;AppModule -->
<g id="edge3" class="edge">
<title>ShopsComponent&#45;&gt;AppModule</title>
<path fill="none" stroke="#000000" d="M2317,-122.2843C2317,-143.3211 2317,-175 2317,-175 2317,-175 1428.9092,-175 1428.9092,-175"/>
<polygon fill="#000000" stroke="#000000" points="1428.9093,-171.5001 1418.9092,-175 1428.9092,-178.5001 1428.9093,-171.5001"/>
</g>
<!-- FooterComponent -->
<g id="node4" class="node">
<title>FooterComponent</title>
<polygon fill="#ffffb3" stroke="#000000" points="2240.8809,-122 2123.1191,-122 2123.1191,-86 2240.8809,-86 2240.8809,-122"/>
<text text-anchor="middle" x="2182" y="-99.8" font-family="Times,serif" font-size="14.00" fill="#000000">FooterComponent</text>
</g>
<!-- FooterComponent&#45;&gt;AppModule -->
<g id="edge4" class="edge">
<title>FooterComponent&#45;&gt;AppModule</title>
<path fill="none" stroke="#000000" d="M2182,-122.308C2182,-142.1455 2182,-171 2182,-171 2182,-171 1428.8656,-171 1428.8656,-171"/>
<polygon fill="#000000" stroke="#000000" points="1428.8656,-167.5001 1418.8656,-171 1428.8656,-174.5001 1428.8656,-167.5001"/>
</g>
<!-- ShopComponent -->
<g id="node5" class="node">
<title>ShopComponent</title>
<polygon fill="#ffffb3" stroke="#000000" points="2105.1151,-122 1994.8849,-122 1994.8849,-86 2105.1151,-86 2105.1151,-122"/>
<text text-anchor="middle" x="2050" y="-99.8" font-family="Times,serif" font-size="14.00" fill="#000000">ShopComponent</text>
</g>
<!-- ShopComponent&#45;&gt;AppModule -->
<g id="edge5" class="edge">
<title>ShopComponent&#45;&gt;AppModule</title>
<path fill="none" stroke="#000000" d="M2050,-122.2222C2050,-140.8285 2050,-167 2050,-167 2050,-167 1428.8449,-167 1428.8449,-167"/>
<polygon fill="#000000" stroke="#000000" points="1428.8449,-163.5001 1418.8449,-167 1428.8449,-170.5001 1428.8449,-163.5001"/>
</g>
<!-- ButtonComponent -->
<g id="node6" class="node">
<title>ButtonComponent</title>
<polygon fill="#ffffb3" stroke="#000000" points="1976.9511,-122 1857.0489,-122 1857.0489,-86 1976.9511,-86 1976.9511,-122"/>
<text text-anchor="middle" x="1917" y="-99.8" font-family="Times,serif" font-size="14.00" fill="#000000">ButtonComponent</text>
</g>
<!-- ButtonComponent&#45;&gt;AppModule -->
<g id="edge6" class="edge">
<title>ButtonComponent&#45;&gt;AppModule</title>
<path fill="none" stroke="#000000" d="M1917,-122.0225C1917,-139.3734 1917,-163 1917,-163 1917,-163 1428.9236,-163 1428.9236,-163"/>
<polygon fill="#000000" stroke="#000000" points="1428.9236,-159.5001 1418.9236,-163 1428.9235,-166.5001 1428.9236,-159.5001"/>
</g>
<!-- ThumbnailComponent -->
<g id="node7" class="node">
<title>ThumbnailComponent</title>
<polygon fill="#ffffb3" stroke="#000000" points="1839.2716,-122 1696.7284,-122 1696.7284,-86 1839.2716,-86 1839.2716,-122"/>
<text text-anchor="middle" x="1768" y="-99.8" font-family="Times,serif" font-size="14.00" fill="#000000">ThumbnailComponent</text>
</g>
<!-- ThumbnailComponent&#45;&gt;AppModule -->
<g id="edge7" class="edge">
<title>ThumbnailComponent&#45;&gt;AppModule</title>
<path fill="none" stroke="#000000" d="M1768,-122.0091C1768,-138.0494 1768,-159 1768,-159 1768,-159 1428.8438,-159 1428.8438,-159"/>
<polygon fill="#000000" stroke="#000000" points="1428.8439,-155.5001 1418.8438,-159 1428.8438,-162.5001 1428.8439,-155.5001"/>
</g>
<!-- LoginRegisterComponent -->
<g id="node8" class="node">
<title>LoginRegisterComponent</title>
<polygon fill="#ffffb3" stroke="#000000" points="1678.9284,-122 1517.0716,-122 1517.0716,-86 1678.9284,-86 1678.9284,-122"/>
<text text-anchor="middle" x="1598" y="-99.8" font-family="Times,serif" font-size="14.00" fill="#000000">LoginRegisterComponent</text>
</g>
<!-- LoginRegisterComponent&#45;&gt;AppModule -->
<g id="edge8" class="edge">
<title>LoginRegisterComponent&#45;&gt;AppModule</title>
<path fill="none" stroke="#000000" d="M1598,-122.1243C1598,-136.7832 1598,-155 1598,-155 1598,-155 1428.8282,-155 1428.8282,-155"/>
<polygon fill="#000000" stroke="#000000" points="1428.8283,-151.5001 1418.8282,-155 1428.8282,-158.5001 1428.8283,-151.5001"/>
</g>
<!-- StoreComponent -->
<g id="node9" class="node">
<title>StoreComponent</title>
<polygon fill="#ffffb3" stroke="#000000" points="1499.3809,-122 1388.6191,-122 1388.6191,-86 1499.3809,-86 1499.3809,-122"/>
<text text-anchor="middle" x="1444" y="-99.8" font-family="Times,serif" font-size="14.00" fill="#000000">StoreComponent</text>
</g>
<!-- StoreComponent&#45;&gt;AppModule -->
<g id="edge9" class="edge">
<title>StoreComponent&#45;&gt;AppModule</title>
<path fill="none" stroke="#000000" d="M1403.6939,-122.1061C1403.6939,-122.1061 1403.6939,-140.991 1403.6939,-140.991"/>
<polygon fill="#000000" stroke="#000000" points="1400.194,-140.9909 1403.6939,-150.991 1407.194,-140.991 1400.194,-140.9909"/>
</g>
<!-- DetailsComponent -->
<g id="node10" class="node">
<title>DetailsComponent</title>
<polygon fill="#ffffb3" stroke="#000000" points="1370.4846,-122 1249.5154,-122 1249.5154,-86 1370.4846,-86 1370.4846,-122"/>
<text text-anchor="middle" x="1310" y="-99.8" font-family="Times,serif" font-size="14.00" fill="#000000">DetailsComponent</text>
</g>
<!-- DetailsComponent&#45;&gt;AppModule -->
<g id="edge10" class="edge">
<title>DetailsComponent&#45;&gt;AppModule</title>
<path fill="none" stroke="#000000" d="M1352.8321,-122.1061C1352.8321,-122.1061 1352.8321,-140.991 1352.8321,-140.991"/>
<polygon fill="#000000" stroke="#000000" points="1349.3321,-140.9909 1352.8321,-150.991 1356.3321,-140.991 1349.3321,-140.9909"/>
</g>
<!-- ProductsComponent -->
<g id="node11" class="node">
<title>ProductsComponent</title>
<polygon fill="#ffffb3" stroke="#000000" points="1231.3258,-122 1100.6742,-122 1100.6742,-86 1231.3258,-86 1231.3258,-122"/>
<text text-anchor="middle" x="1166" y="-99.8" font-family="Times,serif" font-size="14.00" fill="#000000">ProductsComponent</text>
</g>
<!-- ProductsComponent&#45;&gt;AppModule -->
<g id="edge11" class="edge">
<title>ProductsComponent&#45;&gt;AppModule</title>
<path fill="none" stroke="#000000" d="M1166,-122.1243C1166,-136.7832 1166,-155 1166,-155 1166,-155 1325.3132,-155 1325.3132,-155"/>
<polygon fill="#000000" stroke="#000000" points="1325.3132,-158.5001 1335.3132,-155 1325.3132,-151.5001 1325.3132,-158.5001"/>
</g>
<!-- ProductComponent -->
<g id="node12" class="node">
<title>ProductComponent</title>
<polygon fill="#ffffb3" stroke="#000000" points="1082.3809,-122 957.6191,-122 957.6191,-86 1082.3809,-86 1082.3809,-122"/>
<text text-anchor="middle" x="1020" y="-99.8" font-family="Times,serif" font-size="14.00" fill="#000000">ProductComponent</text>
</g>
<!-- ProductComponent&#45;&gt;AppModule -->
<g id="edge12" class="edge">
<title>ProductComponent&#45;&gt;AppModule</title>
<path fill="none" stroke="#000000" d="M1020,-122.0091C1020,-138.0494 1020,-159 1020,-159 1020,-159 1324.9978,-159 1324.9978,-159"/>
<polygon fill="#000000" stroke="#000000" points="1324.9978,-162.5001 1334.9978,-159 1324.9977,-155.5001 1324.9978,-162.5001"/>
</g>
<!-- MapComponent -->
<g id="node13" class="node">
<title>MapComponent</title>
<polygon fill="#ffffb3" stroke="#000000" points="939.4916,-122 832.5084,-122 832.5084,-86 939.4916,-86 939.4916,-122"/>
<text text-anchor="middle" x="886" y="-99.8" font-family="Times,serif" font-size="14.00" fill="#000000">MapComponent</text>
</g>
<!-- MapComponent&#45;&gt;AppModule -->
<g id="edge13" class="edge">
<title>MapComponent&#45;&gt;AppModule</title>
<path fill="none" stroke="#000000" d="M886,-122.0225C886,-139.3734 886,-163 886,-163 886,-163 1325.1376,-163 1325.1376,-163"/>
<polygon fill="#000000" stroke="#000000" points="1325.1377,-166.5001 1335.1376,-163 1325.1376,-159.5001 1325.1377,-166.5001"/>
</g>
<!-- OrderButtonComponent -->
<g id="node14" class="node">
<title>OrderButtonComponent</title>
<polygon fill="#ffffb3" stroke="#000000" points="814.0926,-122 661.9074,-122 661.9074,-86 814.0926,-86 814.0926,-122"/>
<text text-anchor="middle" x="738" y="-99.8" font-family="Times,serif" font-size="14.00" fill="#000000">OrderButtonComponent</text>
</g>
<!-- OrderButtonComponent&#45;&gt;AppModule -->
<g id="edge14" class="edge">
<title>OrderButtonComponent&#45;&gt;AppModule</title>
<path fill="none" stroke="#000000" d="M738,-122.2222C738,-140.8285 738,-167 738,-167 738,-167 1325.0734,-167 1325.0734,-167"/>
<polygon fill="#000000" stroke="#000000" points="1325.0735,-170.5001 1335.0734,-167 1325.0734,-163.5001 1325.0735,-170.5001"/>
</g>
<!-- OwnerButtonComponent -->
<g id="node15" class="node">
<title>OwnerButtonComponent</title>
<polygon fill="#ffffb3" stroke="#000000" points="643.5393,-122 486.4607,-122 486.4607,-86 643.5393,-86 643.5393,-122"/>
<text text-anchor="middle" x="565" y="-99.8" font-family="Times,serif" font-size="14.00" fill="#000000">OwnerButtonComponent</text>
</g>
<!-- OwnerButtonComponent&#45;&gt;AppModule -->
<g id="edge15" class="edge">
<title>OwnerButtonComponent&#45;&gt;AppModule</title>
<path fill="none" stroke="#000000" d="M565,-122.308C565,-142.1455 565,-171 565,-171 565,-171 1325.3353,-171 1325.3353,-171"/>
<polygon fill="#000000" stroke="#000000" points="1325.3353,-174.5001 1335.3353,-171 1325.3352,-167.5001 1325.3353,-174.5001"/>
</g>
<!-- AppComponent  -->
<g id="node17" class="node">
<title>AppComponent </title>
<polygon fill="#80b1d3" stroke="#000000" points="1431.439,-252 1322.561,-252 1322.561,-216 1431.439,-216 1431.439,-252"/>
<text text-anchor="middle" x="1377" y="-229.8" font-family="Times,serif" font-size="14.00" fill="#000000">AppComponent </text>
</g>
<!-- AppModule&#45;&gt;AppComponent  -->
<g id="edge16" class="edge">
<title>AppModule&#45;&gt;AppComponent </title>
<path fill="none" stroke="#000000" stroke-dasharray="1,5" d="M1377,-187.1061C1377,-187.1061 1377,-205.991 1377,-205.991"/>
<polygon fill="#000000" stroke="#000000" points="1373.5001,-205.9909 1377,-215.991 1380.5001,-205.991 1373.5001,-205.9909"/>
</g>
<!-- DataService -->
<g id="node18" class="node">
<title>DataService</title>
<ellipse fill="#fdb462" stroke="#000000" cx="404" cy="-104" rx="58.4415" ry="18"/>
<text text-anchor="middle" x="404" y="-99.8" font-family="Times,serif" font-size="14.00" fill="#000000">DataService</text>
</g>
<!-- DataService&#45;&gt;AppModule -->
<g id="edge17" class="edge">
<title>DataService&#45;&gt;AppModule</title>
<path fill="none" stroke="#000000" d="M404,-122.2843C404,-143.3211 404,-175 404,-175 404,-175 1325.1914,-175 1325.1914,-175"/>
<polygon fill="#000000" stroke="#000000" points="1325.1914,-178.5001 1335.1914,-175 1325.1914,-171.5001 1325.1914,-178.5001"/>
</g>
<!-- AuthService -->
<g id="node19" class="node">
<title>AuthService</title>
<ellipse fill="#fdb462" stroke="#000000" cx="268" cy="-104" rx="59.1083" ry="18"/>
<text text-anchor="middle" x="268" y="-99.8" font-family="Times,serif" font-size="14.00" fill="#000000">AuthService</text>
</g>
<!-- AuthService&#45;&gt;AppModule -->
<g id="edge18" class="edge">
<title>AuthService&#45;&gt;AppModule</title>
<path fill="none" stroke="#000000" d="M268,-122.1554C268,-144.3519 268,-179 268,-179 268,-179 1325.2156,-179 1325.2156,-179"/>
<polygon fill="#000000" stroke="#000000" points="1325.2156,-182.5001 1335.2156,-179 1325.2156,-175.5001 1325.2156,-182.5001"/>
</g>
<!-- AuthGuardService -->
<g id="node20" class="node">
<title>AuthGuardService</title>
<ellipse fill="#fdb462" stroke="#000000" cx="107" cy="-104" rx="83.3674" ry="18"/>
<text text-anchor="middle" x="107" y="-99.8" font-family="Times,serif" font-size="14.00" fill="#000000">AuthGuardService</text>
</g>
<!-- AuthGuardService&#45;&gt;AppModule -->
<g id="edge19" class="edge">
<title>AuthGuardService&#45;&gt;AppModule</title>
<path fill="none" stroke="#000000" d="M107,-122.3228C107,-145.6602 107,-183 107,-183 107,-183 1325.1066,-183 1325.1066,-183"/>
<polygon fill="#000000" stroke="#000000" points="1325.1066,-186.5001 1335.1066,-183 1325.1065,-179.5001 1325.1066,-186.5001"/>
</g>
</g>
</svg>
